<mxfile host="65bd71144e" pages="2">
    <diagram id="j1ny3Ss1Q0sh5PDAtYMi" name="flow">
        <mxGraphModel dx="1036" dy="650" grid="1" gridSize="10" guides="1" tooltips="1" connect="1" arrows="1" fold="1" page="1" pageScale="1" pageWidth="1654" pageHeight="1169" math="0" shadow="1">
            <root>
                <mxCell id="9WSpmLzHRRsmoLOSvqGu-0"/>
                <mxCell id="9WSpmLzHRRsmoLOSvqGu-1" parent="9WSpmLzHRRsmoLOSvqGu-0"/>
                <mxCell id="9WSpmLzHRRsmoLOSvqGu-22" value="SuspendedApplication" style="swimlane;fillColor=#6a00ff;strokeColor=#3700CC;fontColor=#ffffff;strokeWidth=2;rounded=1;shadow=0;sketch=0;glass=0;fontFamily=Inter;fontSource=https%3A%2F%2Ffonts.googleapis.com%2Fcss%3Ffamily%3DInter;swimlaneFillColor=#ffffff;startSize=23;" parent="9WSpmLzHRRsmoLOSvqGu-1" vertex="1">
                    <mxGeometry x="80" y="40" width="200" height="200" as="geometry"/>
                </mxCell>
                <mxCell id="2" value="" style="rounded=1;whiteSpace=wrap;html=1;fontFamily=Inter;fontSource=https%3A%2F%2Ffonts.googleapis.com%2Fcss%3Ffamily%3DInter;fillColor=#dae8fc;strokeColor=#6c8ebf;fontColor=#1A1A1A;" parent="9WSpmLzHRRsmoLOSvqGu-22" vertex="1">
                    <mxGeometry x="20" y="45" width="160" height="30" as="geometry"/>
                </mxCell>
                <mxCell id="3" value="" style="rounded=1;whiteSpace=wrap;html=1;fontFamily=Inter;fontSource=https%3A%2F%2Ffonts.googleapis.com%2Fcss%3Ffamily%3DInter;fillColor=#dae8fc;strokeColor=#6c8ebf;fontColor=#1A1A1A;" parent="9WSpmLzHRRsmoLOSvqGu-22" vertex="1">
                    <mxGeometry x="20" y="85" width="160" height="30" as="geometry"/>
                </mxCell>
                <mxCell id="9WSpmLzHRRsmoLOSvqGu-13" value="" style="rounded=1;whiteSpace=wrap;html=1;fontFamily=Inter;fontSource=https%3A%2F%2Ffonts.googleapis.com%2Fcss%3Ffamily%3DInter;fillColor=#ffe6cc;strokeColor=#d79b00;fontColor=#1A1A1A;" parent="9WSpmLzHRRsmoLOSvqGu-22" vertex="1">
                    <mxGeometry x="20" y="125" width="160" height="30" as="geometry"/>
                </mxCell>
                <mxCell id="jxs49lWqhhuUrKM6y8-y-3" value="AppManager" style="swimlane;fillColor=#6a00ff;strokeColor=#3700CC;fontColor=#ffffff;strokeWidth=2;rounded=1;shadow=0;sketch=0;glass=0;fontFamily=Inter;fontSource=https%3A%2F%2Ffonts.googleapis.com%2Fcss%3Ffamily%3DInter;swimlaneFillColor=#ffffff;startSize=23;" vertex="1" parent="9WSpmLzHRRsmoLOSvqGu-1">
                    <mxGeometry x="360" y="40" width="200" height="200" as="geometry"/>
                </mxCell>
                <mxCell id="jxs49lWqhhuUrKM6y8-y-4" value="" style="rounded=1;whiteSpace=wrap;html=1;fontFamily=Inter;fontSource=https%3A%2F%2Ffonts.googleapis.com%2Fcss%3Ffamily%3DInter;fillColor=#dae8fc;strokeColor=#6c8ebf;fontColor=#1A1A1A;" vertex="1" parent="jxs49lWqhhuUrKM6y8-y-3">
                    <mxGeometry x="20" y="45" width="160" height="30" as="geometry"/>
                </mxCell>
                <mxCell id="jxs49lWqhhuUrKM6y8-y-6" value="" style="rounded=1;whiteSpace=wrap;html=1;fontFamily=Inter;fontSource=https%3A%2F%2Ffonts.googleapis.com%2Fcss%3Ffamily%3DInter;fillColor=#ffe6cc;strokeColor=#d79b00;fontColor=#1A1A1A;" vertex="1" parent="jxs49lWqhhuUrKM6y8-y-3">
                    <mxGeometry x="20" y="125" width="160" height="30" as="geometry"/>
                </mxCell>
                <mxCell id="jxs49lWqhhuUrKM6y8-y-7" value="SuspenderManager" style="swimlane;fillColor=#6a00ff;strokeColor=#3700CC;fontColor=#ffffff;strokeWidth=2;rounded=1;shadow=0;sketch=0;glass=0;fontFamily=Inter;fontSource=https%3A%2F%2Ffonts.googleapis.com%2Fcss%3Ffamily%3DInter;swimlaneFillColor=#ffffff;startSize=23;" vertex="1" parent="9WSpmLzHRRsmoLOSvqGu-1">
                    <mxGeometry x="360" y="320" width="200" height="200" as="geometry"/>
                </mxCell>
                <mxCell id="jxs49lWqhhuUrKM6y8-y-8" value="" style="rounded=1;whiteSpace=wrap;html=1;fontFamily=Inter;fontSource=https%3A%2F%2Ffonts.googleapis.com%2Fcss%3Ffamily%3DInter;fillColor=#dae8fc;strokeColor=#6c8ebf;fontColor=#1A1A1A;" vertex="1" parent="jxs49lWqhhuUrKM6y8-y-7">
                    <mxGeometry x="20" y="45" width="160" height="30" as="geometry"/>
                </mxCell>
                <mxCell id="jxs49lWqhhuUrKM6y8-y-9" value="" style="rounded=1;whiteSpace=wrap;html=1;fontFamily=Inter;fontSource=https%3A%2F%2Ffonts.googleapis.com%2Fcss%3Ffamily%3DInter;fillColor=#dae8fc;strokeColor=#6c8ebf;fontColor=#1A1A1A;" vertex="1" parent="jxs49lWqhhuUrKM6y8-y-7">
                    <mxGeometry x="20" y="85" width="160" height="30" as="geometry"/>
                </mxCell>
                <mxCell id="jxs49lWqhhuUrKM6y8-y-10" value="" style="rounded=1;whiteSpace=wrap;html=1;fontFamily=Inter;fontSource=https%3A%2F%2Ffonts.googleapis.com%2Fcss%3Ffamily%3DInter;fillColor=#ffe6cc;strokeColor=#d79b00;fontColor=#1A1A1A;" vertex="1" parent="jxs49lWqhhuUrKM6y8-y-7">
                    <mxGeometry x="20" y="125" width="160" height="30" as="geometry"/>
                </mxCell>
                <mxCell id="jxs49lWqhhuUrKM6y8-y-11" value="ConfigManager" style="swimlane;fillColor=#6a00ff;strokeColor=#3700CC;fontColor=#ffffff;strokeWidth=2;rounded=1;shadow=0;sketch=0;glass=0;fontFamily=Inter;fontSource=https%3A%2F%2Ffonts.googleapis.com%2Fcss%3Ffamily%3DInter;swimlaneFillColor=#ffffff;startSize=23;" vertex="1" parent="9WSpmLzHRRsmoLOSvqGu-1">
                    <mxGeometry x="640" y="40" width="200" height="200" as="geometry"/>
                </mxCell>
                <mxCell id="jxs49lWqhhuUrKM6y8-y-12" value="" style="rounded=1;whiteSpace=wrap;html=1;fontFamily=Inter;fontSource=https%3A%2F%2Ffonts.googleapis.com%2Fcss%3Ffamily%3DInter;fillColor=#dae8fc;strokeColor=#6c8ebf;fontColor=#1A1A1A;" vertex="1" parent="jxs49lWqhhuUrKM6y8-y-11">
                    <mxGeometry x="20" y="45" width="160" height="30" as="geometry"/>
                </mxCell>
                <mxCell id="jxs49lWqhhuUrKM6y8-y-13" value="" style="rounded=1;whiteSpace=wrap;html=1;fontFamily=Inter;fontSource=https%3A%2F%2Ffonts.googleapis.com%2Fcss%3Ffamily%3DInter;fillColor=#dae8fc;strokeColor=#6c8ebf;fontColor=#1A1A1A;" vertex="1" parent="jxs49lWqhhuUrKM6y8-y-11">
                    <mxGeometry x="20" y="85" width="160" height="30" as="geometry"/>
                </mxCell>
                <mxCell id="jxs49lWqhhuUrKM6y8-y-14" value="" style="rounded=1;whiteSpace=wrap;html=1;fontFamily=Inter;fontSource=https%3A%2F%2Ffonts.googleapis.com%2Fcss%3Ffamily%3DInter;fillColor=#ffe6cc;strokeColor=#d79b00;fontColor=#1A1A1A;" vertex="1" parent="jxs49lWqhhuUrKM6y8-y-11">
                    <mxGeometry x="20" y="125" width="160" height="30" as="geometry"/>
                </mxCell>
                <mxCell id="jxs49lWqhhuUrKM6y8-y-15" value="" style="edgeStyle=orthogonalEdgeStyle;rounded=1;orthogonalLoop=1;jettySize=auto;html=1;fontFamily=Inter;fontSource=https%3A%2F%2Ffonts.googleapis.com%2Fcss%3Ffamily%3DInter;strokeWidth=2;endArrow=oval;endFill=1;exitX=1;exitY=0.5;exitDx=0;exitDy=0;endSize=12;startSize=12;" edge="1" parent="9WSpmLzHRRsmoLOSvqGu-1" source="9WSpmLzHRRsmoLOSvqGu-22">
                    <mxGeometry relative="1" as="geometry">
                        <mxPoint x="340" y="360" as="sourcePoint"/>
                        <mxPoint x="360" y="140" as="targetPoint"/>
                    </mxGeometry>
                </mxCell>
                <mxCell id="jxs49lWqhhuUrKM6y8-y-16" value="" style="edgeStyle=orthogonalEdgeStyle;rounded=1;orthogonalLoop=1;jettySize=auto;html=1;fontFamily=Inter;fontSource=https%3A%2F%2Ffonts.googleapis.com%2Fcss%3Ffamily%3DInter;strokeWidth=2;endArrow=block;endFill=1;exitX=1;exitY=0.5;exitDx=0;exitDy=0;" edge="1" parent="9WSpmLzHRRsmoLOSvqGu-1" source="9WSpmLzHRRsmoLOSvqGu-22">
                    <mxGeometry relative="1" as="geometry">
                        <mxPoint x="290" y="150" as="sourcePoint"/>
                        <mxPoint x="360" y="430" as="targetPoint"/>
                        <Array as="points">
                            <mxPoint x="320" y="140"/>
                            <mxPoint x="320" y="430"/>
                        </Array>
                    </mxGeometry>
                </mxCell>
                <mxCell id="jxs49lWqhhuUrKM6y8-y-19" style="edgeStyle=orthogonalEdgeStyle;orthogonalLoop=1;jettySize=auto;html=1;entryX=0;entryY=0.5;entryDx=0;entryDy=0;fontFamily=Inter;fontSource=https%3A%2F%2Ffonts.googleapis.com%2Fcss%3Ffamily%3DInter;endArrow=oval;endFill=1;strokeWidth=2;endSize=12;startSize=12;" edge="1" parent="9WSpmLzHRRsmoLOSvqGu-1" source="jxs49lWqhhuUrKM6y8-y-3" target="jxs49lWqhhuUrKM6y8-y-11">
                    <mxGeometry relative="1" as="geometry"/>
                </mxCell>
            </root>
        </mxGraphModel>
    </diagram>
</mxfile>